<mxfile host="app.diagrams.net" modified="2023-06-11T22:25:26.880Z" agent="Mozilla/5.0 (Windows NT 10.0; Win64; x64) AppleWebKit/537.36 (KHTML, like Gecko) Chrome/114.0.0.0 Safari/537.36" etag="C1hGsSHlOuFPZAdeYCJW" version="21.3.8" type="device">
  <diagram name="Página-1" id="fK7Xlyyx27jgx29i5lb5">
    <mxGraphModel dx="1195" dy="637" grid="1" gridSize="10" guides="1" tooltips="1" connect="1" arrows="1" fold="1" page="1" pageScale="1" pageWidth="827" pageHeight="1169" math="0" shadow="0">
      <root>
        <mxCell id="0" />
        <mxCell id="1" parent="0" />
        <mxCell id="pOOgsz0XG8bR8di0GnX8-8" style="edgeStyle=orthogonalEdgeStyle;rounded=0;orthogonalLoop=1;jettySize=auto;html=1;entryX=0;entryY=0.5;entryDx=0;entryDy=0;endArrow=none;endFill=0;exitX=0.5;exitY=0.5;exitDx=0;exitDy=0;exitPerimeter=0;" edge="1" parent="1" source="pOOgsz0XG8bR8di0GnX8-34" target="pOOgsz0XG8bR8di0GnX8-3">
          <mxGeometry relative="1" as="geometry">
            <mxPoint x="160" y="145" as="sourcePoint" />
          </mxGeometry>
        </mxCell>
        <mxCell id="pOOgsz0XG8bR8di0GnX8-3" value="View" style="html=1;whiteSpace=wrap;fillColor=#fff2cc;strokeColor=#d6b656;" vertex="1" parent="1">
          <mxGeometry x="240" y="130" width="110" height="30" as="geometry" />
        </mxCell>
        <mxCell id="pOOgsz0XG8bR8di0GnX8-10" style="edgeStyle=orthogonalEdgeStyle;rounded=0;orthogonalLoop=1;jettySize=auto;html=1;entryX=0.5;entryY=0;entryDx=0;entryDy=0;endArrow=none;endFill=0;" edge="1" parent="1" source="pOOgsz0XG8bR8di0GnX8-4" target="pOOgsz0XG8bR8di0GnX8-5">
          <mxGeometry relative="1" as="geometry" />
        </mxCell>
        <mxCell id="pOOgsz0XG8bR8di0GnX8-4" value="CarteiraRouter" style="html=1;whiteSpace=wrap;fillColor=#fff2cc;strokeColor=#d6b656;" vertex="1" parent="1">
          <mxGeometry x="440" y="130" width="110" height="30" as="geometry" />
        </mxCell>
        <mxCell id="pOOgsz0XG8bR8di0GnX8-11" style="edgeStyle=orthogonalEdgeStyle;rounded=0;orthogonalLoop=1;jettySize=auto;html=1;entryX=0;entryY=0.5;entryDx=0;entryDy=0;endArrow=none;endFill=0;exitX=1;exitY=0.5;exitDx=0;exitDy=0;" edge="1" parent="1" source="pOOgsz0XG8bR8di0GnX8-5" target="pOOgsz0XG8bR8di0GnX8-6">
          <mxGeometry relative="1" as="geometry">
            <Array as="points">
              <mxPoint x="600" y="345" />
              <mxPoint x="600" y="345" />
            </Array>
          </mxGeometry>
        </mxCell>
        <mxCell id="pOOgsz0XG8bR8di0GnX8-5" value="CarteiraController" style="html=1;whiteSpace=wrap;fillColor=#fff2cc;strokeColor=#d6b656;" vertex="1" parent="1">
          <mxGeometry x="440" y="330" width="110" height="30" as="geometry" />
        </mxCell>
        <mxCell id="pOOgsz0XG8bR8di0GnX8-6" value="PessoaModel" style="html=1;whiteSpace=wrap;fillColor=#fff2cc;strokeColor=#d6b656;" vertex="1" parent="1">
          <mxGeometry x="660" y="330" width="110" height="30" as="geometry" />
        </mxCell>
        <mxCell id="pOOgsz0XG8bR8di0GnX8-9" style="edgeStyle=orthogonalEdgeStyle;rounded=0;orthogonalLoop=1;jettySize=auto;html=1;entryX=0;entryY=0.5;entryDx=0;entryDy=0;endArrow=none;endFill=0;exitX=1;exitY=0.5;exitDx=0;exitDy=0;" edge="1" parent="1" source="pOOgsz0XG8bR8di0GnX8-3" target="pOOgsz0XG8bR8di0GnX8-4">
          <mxGeometry relative="1" as="geometry">
            <mxPoint x="170" y="155" as="sourcePoint" />
            <mxPoint x="250" y="155" as="targetPoint" />
          </mxGeometry>
        </mxCell>
        <mxCell id="pOOgsz0XG8bR8di0GnX8-14" value="" style="endArrow=classic;html=1;rounded=0;" edge="1" parent="1">
          <mxGeometry width="50" height="50" relative="1" as="geometry">
            <mxPoint x="180" y="129.6" as="sourcePoint" />
            <mxPoint x="220" y="129.6" as="targetPoint" />
          </mxGeometry>
        </mxCell>
        <mxCell id="pOOgsz0XG8bR8di0GnX8-15" value="" style="endArrow=classic;html=1;rounded=0;" edge="1" parent="1">
          <mxGeometry width="50" height="50" relative="1" as="geometry">
            <mxPoint x="374" y="130" as="sourcePoint" />
            <mxPoint x="414" y="130" as="targetPoint" />
          </mxGeometry>
        </mxCell>
        <mxCell id="pOOgsz0XG8bR8di0GnX8-16" value="" style="endArrow=classic;html=1;rounded=0;" edge="1" parent="1">
          <mxGeometry width="50" height="50" relative="1" as="geometry">
            <mxPoint x="510" y="210" as="sourcePoint" />
            <mxPoint x="510" y="270" as="targetPoint" />
          </mxGeometry>
        </mxCell>
        <mxCell id="pOOgsz0XG8bR8di0GnX8-17" value="" style="endArrow=classic;html=1;rounded=0;" edge="1" parent="1">
          <mxGeometry width="50" height="50" relative="1" as="geometry">
            <mxPoint x="560" y="330" as="sourcePoint" />
            <mxPoint x="650" y="330" as="targetPoint" />
          </mxGeometry>
        </mxCell>
        <mxCell id="pOOgsz0XG8bR8di0GnX8-19" value="trocarVantagem(idVantagem)" style="text;html=1;align=center;verticalAlign=middle;resizable=0;points=[];autosize=1;strokeColor=none;fillColor=none;" vertex="1" parent="1">
          <mxGeometry x="110" y="100" width="180" height="30" as="geometry" />
        </mxCell>
        <mxCell id="pOOgsz0XG8bR8di0GnX8-20" value="transação(descrição, origem, destino, valor)" style="text;html=1;align=center;verticalAlign=middle;resizable=0;points=[];autosize=1;strokeColor=none;fillColor=none;" vertex="1" parent="1">
          <mxGeometry x="510" y="210" width="260" height="30" as="geometry" />
        </mxCell>
        <mxCell id="pOOgsz0XG8bR8di0GnX8-21" value="1: findByID(origem)" style="text;html=1;align=center;verticalAlign=middle;resizable=0;points=[];autosize=1;strokeColor=none;fillColor=none;" vertex="1" parent="1">
          <mxGeometry x="540" y="270" width="130" height="30" as="geometry" />
        </mxCell>
        <mxCell id="pOOgsz0XG8bR8di0GnX8-27" style="edgeStyle=orthogonalEdgeStyle;rounded=0;orthogonalLoop=1;jettySize=auto;html=1;endArrow=none;endFill=0;" edge="1" parent="1">
          <mxGeometry relative="1" as="geometry">
            <mxPoint x="40" y="40" as="sourcePoint" />
            <mxPoint x="890" y="570" as="targetPoint" />
          </mxGeometry>
        </mxCell>
        <mxCell id="pOOgsz0XG8bR8di0GnX8-28" style="edgeStyle=orthogonalEdgeStyle;rounded=0;orthogonalLoop=1;jettySize=auto;html=1;endArrow=none;endFill=0;" edge="1" parent="1">
          <mxGeometry relative="1" as="geometry">
            <mxPoint x="40" y="40" as="sourcePoint" />
            <mxPoint x="40" y="570" as="targetPoint" />
          </mxGeometry>
        </mxCell>
        <mxCell id="pOOgsz0XG8bR8di0GnX8-29" style="edgeStyle=orthogonalEdgeStyle;rounded=0;orthogonalLoop=1;jettySize=auto;html=1;endArrow=none;endFill=0;" edge="1" parent="1">
          <mxGeometry relative="1" as="geometry">
            <mxPoint x="40" y="570" as="sourcePoint" />
            <mxPoint x="890" y="570" as="targetPoint" />
            <Array as="points">
              <mxPoint x="560" y="570.03" />
              <mxPoint x="650" y="570.03" />
            </Array>
          </mxGeometry>
        </mxCell>
        <mxCell id="pOOgsz0XG8bR8di0GnX8-33" value="Diagrama de Comunicação - Trocar Moedas" style="text;html=1;align=center;verticalAlign=middle;resizable=0;points=[];autosize=1;strokeColor=none;fillColor=none;rounded=0;fontStyle=1" vertex="1" parent="1">
          <mxGeometry x="35" y="38" width="270" height="30" as="geometry" />
        </mxCell>
        <mxCell id="pOOgsz0XG8bR8di0GnX8-34" value="Aluno" style="shape=umlActor;verticalLabelPosition=bottom;verticalAlign=top;html=1;outlineConnect=0;" vertex="1" parent="1">
          <mxGeometry x="110" y="130" width="30" height="30" as="geometry" />
        </mxCell>
        <mxCell id="pOOgsz0XG8bR8di0GnX8-37" value="2: findByID(destino)" style="text;html=1;align=center;verticalAlign=middle;resizable=0;points=[];autosize=1;strokeColor=none;fillColor=none;" vertex="1" parent="1">
          <mxGeometry x="540" y="290" width="130" height="30" as="geometry" />
        </mxCell>
        <mxCell id="pOOgsz0XG8bR8di0GnX8-38" value="3: findByID(idRemetente, carteiraRemtente)" style="text;html=1;align=center;verticalAlign=middle;resizable=0;points=[];autosize=1;strokeColor=none;fillColor=none;" vertex="1" parent="1">
          <mxGeometry x="525" y="450" width="260" height="30" as="geometry" />
        </mxCell>
        <mxCell id="pOOgsz0XG8bR8di0GnX8-39" value="4: findByID(idDestinatario, carteiraDestinatario)" style="text;html=1;align=center;verticalAlign=middle;resizable=0;points=[];autosize=1;strokeColor=none;fillColor=none;" vertex="1" parent="1">
          <mxGeometry x="525" y="470" width="270" height="30" as="geometry" />
        </mxCell>
        <mxCell id="pOOgsz0XG8bR8di0GnX8-40" value="CarteiraModel" style="html=1;whiteSpace=wrap;fillColor=#fff2cc;strokeColor=#d6b656;" vertex="1" parent="1">
          <mxGeometry x="660" y="500" width="110" height="30" as="geometry" />
        </mxCell>
        <mxCell id="pOOgsz0XG8bR8di0GnX8-41" style="edgeStyle=orthogonalEdgeStyle;rounded=0;orthogonalLoop=1;jettySize=auto;html=1;entryX=0.5;entryY=1;entryDx=0;entryDy=0;endArrow=none;endFill=0;exitX=0;exitY=0.5;exitDx=0;exitDy=0;" edge="1" parent="1" source="pOOgsz0XG8bR8di0GnX8-40" target="pOOgsz0XG8bR8di0GnX8-5">
          <mxGeometry relative="1" as="geometry">
            <mxPoint x="560" y="355" as="sourcePoint" />
            <mxPoint x="650" y="355" as="targetPoint" />
            <Array as="points">
              <mxPoint x="495" y="515" />
            </Array>
          </mxGeometry>
        </mxCell>
        <mxCell id="pOOgsz0XG8bR8di0GnX8-43" value="" style="endArrow=classic;html=1;rounded=0;" edge="1" parent="1">
          <mxGeometry width="50" height="50" relative="1" as="geometry">
            <mxPoint x="540" y="500" as="sourcePoint" />
            <mxPoint x="620" y="500" as="targetPoint" />
          </mxGeometry>
        </mxCell>
        <mxCell id="pOOgsz0XG8bR8di0GnX8-44" value="transação(descrição, origem, destino, valor)" style="text;html=1;align=center;verticalAlign=middle;resizable=0;points=[];autosize=1;strokeColor=none;fillColor=none;" vertex="1" parent="1">
          <mxGeometry x="340" y="100" width="260" height="30" as="geometry" />
        </mxCell>
      </root>
    </mxGraphModel>
  </diagram>
</mxfile>
